<?xml version="1.0" encoding="UTF-8" standalone="no"?>
<!-- Created with Inkscape (http://www.inkscape.org/) -->

<svg
   width="157.60965mm"
   height="41.986004mm"
   viewBox="0 0 157.60965 41.986004"
   version="1.1"
   id="svg1"
   xmlns:xlink="http://www.w3.org/1999/xlink"
   xmlns="http://www.w3.org/2000/svg"
   xmlns:svg="http://www.w3.org/2000/svg">
  <defs
     id="defs1" />
  <g
     id="layer1"
     transform="translate(-22.694523,-222.35029)">
    <text
       xml:space="preserve"
       style="font-style:normal;font-variant:normal;font-weight:normal;font-stretch:normal;font-size:25.4px;font-family:flutSaus;-inkscape-font-specification:flutSaus;opacity:1;fill:#000000;fill-opacity:0.998124;stroke-width:1.32292"
       id="text3"><textPath
         xlink:href="#path4"
         id="textPath4"><tspan
           id="tspan3"
           style="font-style:normal;font-variant:normal;font-weight:normal;font-stretch:normal;font-size:25.4px;font-family:flutSaus;-inkscape-font-specification:flutSaus;fill:#000000;fill-opacity:0.998124;stroke-width:1.32292">ERIC SAKMAR</tspan></textPath></text>
    <circle
       style="opacity:1;fill:none;fill-opacity:0.998124;stroke-width:1.80941"
       id="path4"
       cx="-288.39404"
       cy="-87.648735"
       r="116.73313"
       transform="rotate(-127.77351)" />
    <path
       d="m 44.831073,181.30626 q 0.101027,0.14631 0.07018,0.41455 -0.04528,0.24733 -0.170688,0.33393 -0.0627,0.0433 -1.205804,0.80175 -1.13663,0.72312 -1.220235,0.78085 -0.815149,0.56287 -2.206073,1.67766 -1.384455,1.07945 -1.259048,0.99285 -0.480728,0.33195 -0.753451,0.0264 -1.374082,-2.16875 -3.811167,-4.71471 -0.61114,-0.75095 -1.952359,-2.20158 -0.141335,-0.0259 -0.4255,-0.1692 0.0433,0.0627 -0.233911,-0.51755 -0.0433,-0.0627 -0.689772,-0.82013 -0.941593,-1.14011 -2.888979,-3.46859 -0.260274,0.0254 -0.490187,0.18414 -0.0418,0.0289 -0.09654,0.1284 -0.04827,0.0642 -0.131876,0.12193 -0.501629,0.34638 -0.746983,-0.009 -0.101027,-0.14631 -0.05575,-0.39365 0.04528,-0.24734 0.149787,-0.3195 2.02144,-1.76623 5.309891,-4.46908 0.278185,-0.22296 0.852466,-0.86644 0.559848,-0.66439 0.622551,-0.70768 0.125408,-0.0866 0.491683,-0.0926 0.351843,-0.0269 0.467303,0.14033 0.0433,0.0627 0.04629,0.24584 0.003,0.18314 0.02539,0.26027 0.256308,0.5947 0.973449,1.36505 0.150794,0.17368 0.164739,0.59619 l -0.480729,0.33195 q -0.253805,-0.01 -0.556888,-0.44887 -0.05773,-0.0836 -0.187623,-0.27172 -0.108992,-0.20254 -0.166722,-0.28615 -0.404111,-0.58523 -0.780333,-0.32545 l -4.253388,3.58522 q -0.438926,0.30309 -0.533973,0.52305 1.114784,1.39093 2.229568,2.78185 1.358642,1.65468 1.734864,1.39489 0.0627,-0.0433 0.319987,-0.25182 0.242851,-0.22943 0.326456,-0.28716 0.0836,-0.0577 1.25258,-0.95752 1.168974,-0.89979 1.231678,-0.94309 0.0627,-0.0433 0.508098,-0.38171 0.451864,-0.37375 0.625542,-0.52454 -0.03335,-0.31651 -0.589751,-1.167 -0.267749,-0.43245 0.08757,-0.67781 0.104506,-0.0722 0.351843,-0.0269 0.268237,0.0309 0.3404,0.13536 l 1.270063,1.83931 q 0.05773,0.0836 0.300093,0.25578 0.248832,0.13685 0.29213,0.19956 0.11546,0.16721 0.07018,0.41454 -0.03881,0.21201 -0.185121,0.31303 -0.418025,0.28866 -0.756442,-0.15674 -0.352849,-0.4663 -0.582763,-0.30754 -0.08361,0.0577 -0.771851,0.62557 -0.667344,0.55341 -0.750949,0.61115 -0.0627,0.0433 -0.578766,0.36877 -0.509594,0.29015 -0.593199,0.34788 -0.146309,0.10103 -0.826591,0.7251 -0.763887,0.68181 -0.873366,0.88088 1.88816,2.15331 5.314621,6.17679 0.260274,-0.0254 0.511089,-0.19858 0.0627,-0.0433 1.112739,-0.89183 1.035603,-0.86943 1.119208,-0.92716 -0.104506,0.0722 0.823112,-0.50663 0.844014,-0.52107 1.519322,-1.01824 -0.0015,-0.0916 -0.08809,-0.21698 -0.187623,-0.27172 -0.709178,-0.71412 -0.535987,-0.46331 -0.564852,-0.50511 -0.11546,-0.16721 0.08458,-0.86095 0.393646,-0.0557 0.579773,0.1244 1.888649,1.75171 1.989677,1.89802 z m 12.239898,-5.57239 q 0.227811,0.42544 -0.287203,0.70122 -0.335879,0.17985 -1.301908,0.58187 -0.954039,0.42442 -2.409514,1.20377 -0.537406,0.28776 -1.053136,0.13174 -0.215821,-0.40306 0.318408,-0.80437 0.666993,-0.53002 0.687797,-0.59879 l -5.831761,-3.73459 0.959205,1.79135 2.197515,3.40444 q 0.213518,-0.0855 0.862011,-0.0582 l 0.275771,0.51501 q -0.423142,0.71639 -0.826197,0.93221 -0.06718,0.036 -0.662944,0.26855 -0.561387,0.24297 -0.774904,0.32849 -0.403055,0.21582 -0.806109,0.43164 -0.482221,0.2294 -0.869236,0.20614 l -0.167861,-0.31349 q -0.03915,-0.18072 0.157616,-0.45895 0.196763,-0.27824 0.420682,-0.39814 0.179135,-0.0959 1.481043,-0.67779 0.0104,-0.0344 0.05519,-0.0584 0.05519,-0.0584 -0.0048,-0.17032 l -8.783551,-14.19751 q -0.216694,-0.028 -0.485397,0.11585 -0.179136,0.0959 -0.43426,0.31897 -0.232733,0.21106 -0.255125,0.22305 l -0.873285,0.46761 q -0.01199,-0.0224 -0.140705,-0.15515 -0.106322,-0.14476 -0.154282,-0.23433 0.266399,-0.63245 1.657159,-1.69409 1.313183,-0.99128 2.880617,-1.83058 0.895677,-0.47961 2.964391,-0.86702 1.153106,-0.21408 1.911098,0.0715 1.677492,0.65762 2.576747,2.33701 1.139056,2.12723 0.509307,4.39486 -0.619347,2.23324 -2.774609,3.58899 -0.179135,0.0959 -0.341516,0.38455 1.840431,1.60761 4.147917,2.84989 0.127126,0.076 1.056155,0.78864 0.649209,0.45911 1.555131,0.75195 0.125538,0.0192 0.819687,-0.35248 0.08957,-0.048 0.389477,-0.29499 0.31031,-0.2814 0.399878,-0.32936 0.246311,-0.13189 0.605297,0.10806 0.266243,0.17437 0.350173,0.33112 z m -7.731759,-11.53375 q -0.647464,-1.20916 -1.74205,-1.74672 -1.336849,-0.66715 -2.886656,-0.0102 -0.146342,0.0496 -0.507789,0.12784 -0.361447,0.0783 -0.451015,0.12625 l -2.239193,1.19901 1.234977,2.30637 q 0.359702,0.67176 1.90094,2.95819 1.541239,2.28644 1.668365,2.36243 0,0 0.738933,-0.39567 1.903314,-1.01916 2.585788,-3.02689 0.704865,-2.01972 -0.3023,-3.90065 z m 13.952308,8.40034 q 0.209375,0.49059 -0.08777,0.70026 -1.091728,0.74209 -2.797109,1.46992 -0.794288,0.33899 -1.013633,-0.17496 -0.119643,-0.28034 0.361269,-0.70651 0.337322,-0.30967 0.547575,-0.3994 0.09345,-0.0399 0.160108,-0.0131 0.08006,-0.007 0.1735,-0.0464 0.490589,-0.20937 0.520793,-0.33273 0.04359,-0.15669 -0.175751,-0.67064 L 57.087809,163.95295 55.014,159.09378 q -0.02991,-0.0701 -0.06295,-0.27692 -0.03304,-0.20683 -0.06295,-0.27691 -0.52392,0.19598 -1.057811,0.3686 -0.84756,0.27888 -1.036994,-0.16499 -0.05982,-0.14017 0.03392,-0.37349 0.09374,-0.23332 0.187183,-0.2732 0.09345,-0.0399 0.580614,-0.19257 0.51053,-0.16265 0.603975,-0.20253 0.07008,-0.0299 0.347293,-0.2863 0.277208,-0.25639 0.394015,-0.30624 0.07008,-0.0299 0.240163,-0.0196 0.170079,0.0103 0.263525,-0.0296 0.07008,-0.0299 0.130198,-0.0832 0.0735,-0.0866 0.190312,-0.13645 0.256975,-0.10968 0.623623,0.0376 l 0.209375,0.49058 q -0.187476,0.46665 -0.304283,0.5165 -0.09345,0.0399 -0.136748,0.003 -0.0433,-0.0368 -0.136747,0.003 -0.233614,0.0997 -0.25414,0.43986 l 5.02529,11.58069 q 1.280489,2.35325 1.360251,2.54014 0.266945,-0.0863 0.567222,-0.15923 0.393723,-0.1128 0.573187,0.3077 z m 11.580026,-8.31763 q -0.02357,-0.0725 0.374224,1.56101 0.414092,1.60145 0.665518,2.37438 0.26714,0.82125 0.362007,1.03078 -0.06635,0.28868 -0.356205,0.38297 -0.09662,0.0314 -0.42517,-0.0754 -0.320696,-0.0827 -0.417313,-0.0512 -0.09662,0.0314 -0.765661,0.3559 -0.637033,0.34077 -0.73365,0.37219 -3.357437,1.09214 -6.433713,-1.1391 -2.652856,-1.91491 -3.642845,-4.95834 -1.084275,-3.33328 -0.694281,-6.15786 0.550356,-3.89171 3.908682,-6.21279 1.235363,-0.88263 1.766756,-1.05549 0.289851,-0.0943 0.979551,0.0553 0.229604,0.45951 0.80056,1.47574 0.515373,0.92746 0.538944,0.99993 0.07857,0.24154 -0.09168,0.45718 -0.178102,0.19148 -0.274719,0.22291 -0.289851,0.0943 -0.829379,-0.82532 -0.777571,-1.32296 -0.817439,-1.36341 -3.981672,1.8828 -4.90714,5.44247 -0.767438,2.8138 0.418978,6.46109 0.958562,2.94681 3.371624,4.69933 2.724735,1.97165 5.768167,0.98166 0.434777,-0.14143 1.007204,-0.43447 0.56457,-0.3172 0.525285,-0.43797 -0.406235,-1.5773 -0.820327,-3.17875 -0.359676,-1.35205 0.0751,-1.49348 0.434776,-0.14143 0.646917,0.51073 z m 25.828204,-4.09249 q 0.26374,2.39855 -1.94854,4.12388 -1.85577,1.48171 -4.178571,1.73712 -0.252478,0.0278 -0.956641,0.13074 -0.676139,0.12545 -0.777131,0.13655 -0.07574,0.008 -0.513285,-0.0202 -0.412293,-0.0313 -0.513285,-0.0202 -0.100991,0.0111 -0.375941,0.0669 -0.272174,0.081 -0.347917,0.0894 0.302974,-0.0333 -2.459882,-0.0617 -0.14012,-0.11236 -0.254992,-0.2275 -0.477347,-2.01731 -0.546752,-2.64851 -0.03609,-0.32822 0.104555,-0.67587 0.140645,-0.34766 0.443619,-0.38097 0.732187,-0.0805 0.978478,2.85657 0.417846,0.0818 1.343425,0.13336 1.223,-0.0323 1.92994,-0.10999 0.100991,-0.0111 0.928617,-0.15322 0.852874,-0.14488 0.979113,-0.15876 1.994579,-0.21932 3.488026,-1.27789 1.894899,-1.35825 1.656149,-3.52956 -0.141584,-1.28764 -1.088585,-2.23119 -1.033849,-1.03621 -2.582033,-1.17261 -1.741838,-0.0385 -3.458428,-0.0797 -2.311171,-0.10362 -3.561408,-0.78384 -1.709988,-0.91076 -1.945962,-3.05683 -0.316482,-2.87825 1.284559,-4.81746 1.623512,-1.96723 4.451269,-2.27816 1.110904,-0.12215 3.430666,-0.1728 0.532981,-0.0331 1.281562,0.26793 0.564458,1.87997 0.769894,3.74831 -0.631458,0.29941 -0.60621,0.29664 -0.328222,0.0361 -0.612702,-1.38916 -0.192342,-1.05208 -0.222355,-1.78982 -0.117649,-0.14038 -0.28024,-0.22472 -1.99154,0.0146 -3.809384,0.21445 -2.423792,0.26651 -3.690796,1.99011 -1.227613,1.61707 -0.96943,3.96512 0.158241,1.43912 1.51476,2.38875 1.216398,0.83726 2.377798,0.70956 0.100992,-0.0111 0.09822,-0.0363 -0.0056,-0.0505 0.09544,-0.0616 -0.02525,0.003 0.97885,0.0712 1.029347,0.0657 1.562327,0.0326 2.477064,-0.24681 4.124927,1.02852 1.647866,1.27533 1.878286,3.3709 z m 18.80852,4.449 q -0.0591,0.25219 -0.29763,0.54931 -1.32844,0.21041 -2.75007,0.16362 -0.22848,-0.008 -0.42572,-0.1919 -0.17269,-0.15817 -0.16852,-0.2851 0.002,-0.0508 0.47784,-0.61962 l -1.13453,-9.54208 q -0.0695,-0.2056 -0.28458,-0.6193 -1.21854,-0.0401 -1.80159,-0.0847 -0.58221,-0.07 -0.45528,-0.0658 -0.0762,-0.002 -0.84026,0.0486 -0.7387,0.0519 -0.84025,0.0486 l -3.35098,-0.11029 q -0.0861,2.61478 -0.44552,5.04267 -0.69938,5.03432 -0.76686,5.54038 -0.0362,0.32918 -0.318,0.39615 -1.02632,0.2966 -2.44795,0.24981 -0.63465,-0.0209 -0.61794,-0.52861 0.008,-0.25386 1.15825,-0.44474 1.30222,-0.18587 1.40627,-0.25868 0.62354,-4.27441 0.64276,-4.85829 l 1.82319,-12.92642 q -0.55682,-0.0692 -1.11365,-0.13831 -0.73453,-0.075 -0.71699,-0.60811 0.003,-0.10155 0.0312,-0.17687 0.0541,-0.0999 0.0549,-0.12526 0.99006,0.0326 3.09796,0.0765 2.10873,0.0186 2.03257,0.0161 0.5585,0.0184 2.04093,-0.23779 1.50781,-0.25534 2.09169,-0.23612 0.20309,0.007 0.32418,0.18856 0.1473,0.15733 0.14312,0.28426 -0.007,0.20309 -0.26723,0.39783 -0.23516,0.19557 -0.3367,0.19223 -0.10155,-0.003 -0.30464,-0.01 -0.1777,-0.006 -0.27925,-0.009 0.0539,1.45036 0.50381,4.76895 0.42783,3.21622 1.16294,8.67895 0.17834,1.5307 0.38208,3.06223 0.28689,2.09337 0.51537,2.10089 0.0762,0.002 0.53394,-0.008 0.48401,-0.0349 0.58556,-0.0316 0.7362,0.0242 0.95549,0.311 z m -4.57769,-11.48519 -1.0058,-7.27603 -0.48234,-0.0159 q -0.10154,-0.003 -1.4537,0.15546 -1.32593,0.13426 -1.42748,0.13092 0.0762,0.003 -0.71165,0.002 -0.66004,-0.0217 -0.99006,-0.0326 l -0.68633,3.86571 q -0.015,0.45695 -0.17205,1.36668 -0.13163,0.91057 -0.13246,0.93595 l -0.0209,0.63466 z m 19.19354,13.92961 q -0.12174,0.10785 -1.32929,0.23432 -1.17821,0.10577 -1.45353,0.0582 -0.25029,-0.0432 -2.33261,-3.80545 -1.6441,-3.01633 -2.77489,-5.27379 -0.14677,0.10353 -0.15974,0.17862 -0.013,0.0751 -0.25039,2.79213 -0.24698,2.9216 -0.3387,3.60171 -0.0624,0.65941 0.21295,0.70698 0.10012,0.0173 0.20456,0.01 0.13379,-0.0284 0.23391,-0.0111 0.50058,0.0865 0.62731,0.54657 -0.22369,0.39955 -0.58707,0.4141 -1.9334,0.001 -3.3851,-0.24972 -0.62573,-0.10811 -0.54357,-0.58366 0.0432,-0.25029 1.04532,-0.23183 0.69741,-0.008 1.09788,0.0608 l 1.90081,-18.46251 q 0.0708,0.038 -1.50607,-0.23441 -0.47556,-0.0822 -0.7024,-0.55955 0.0269,-0.30467 0.33153,-0.27781 l 4.16534,0.35874 q 0.10011,0.0173 0.19067,0.23915 0.1199,0.20115 0.0983,0.3263 -0.0735,0.42549 -0.69924,0.31739 -0.0751,-0.013 -0.45053,-0.0778 -0.3504,-0.0605 -0.55064,-0.0951 l -0.26809,1.55181 q -0.013,0.0751 -0.0858,1.09355 -0.0435,0.99776 -0.0608,1.09788 l -0.31759,4.9715 q 0.33677,-0.45734 3.95847,-5.60553 2.21498,-3.12291 2.61545,-3.05372 0.0751,0.013 0.71287,0.20048 0.63779,0.18752 0.73791,0.20481 0.0751,0.013 0.41776,-0.0309 0.347,-0.0689 0.44712,-0.0516 0.80093,0.13837 0.71878,0.61392 -0.0303,0.17521 -0.30651,0.28214 -0.27191,0.0819 -0.47215,0.0473 -0.025,-0.004 -2.04466,-0.25013 -0.81508,0.83868 -3.49721,4.57684 -2.7495,3.82963 -2.83165,4.30519 -0.0692,0.40046 1.13669,2.6709 0.93331,1.75936 1.49576,2.68137 0.54515,1.02213 1.08598,2.06929 1.05753,1.93549 1.58315,2.02629 0.0751,0.013 0.66805,0.0123 0.62233,-0.0214 0.72244,-0.004 0.2503,0.0432 0.53925,0.60869 z m 14.04996,4.87935 q -0.32516,0.53769 -0.8517,0.34886 -0.81783,-0.27858 -1.20437,-0.31796 -0.38655,-0.0394 -0.67035,-0.1534 -0.36411,-0.1122 -0.52457,-0.45401 l 0.13464,-0.43693 q 0.36608,-0.15298 0.43707,-0.21084 0.10274,-0.0747 0.19249,-0.36594 l 3.56915,-14.68785 q -0.51187,0.45358 -0.92297,1.09768 -0.79794,1.29567 -1.60335,2.61563 -0.58116,0.93721 -0.67304,1.83915 -0.396,0.25008 -0.63126,0.15101 -0.24274,-0.0748 -0.90249,-3.28148 -0.80511,-3.94251 -1.00466,-4.58873 -0.0953,0.0504 -0.21494,0.43877 -0.26179,0.84958 -0.49395,2.29301 -0.29764,1.74221 -0.4454,2.30798 -0.14776,0.56578 -0.45641,1.82618 -0.63776,2.32844 -1.94348,7.77337 -0.10288,0.42013 0.15284,0.71156 0.26319,0.26715 0.20336,0.46134 -0.0524,0.16992 -0.33998,0.24076 -0.29509,0.0951 -0.39219,0.0652 -0.0971,-0.0299 -1.19689,-0.34223 -1.10728,-0.28805 -1.20437,-0.31797 -0.76928,-0.26362 -0.73357,-0.81077 0.16258,-0.26885 2.36781,0.25121 l 0.32347,-0.96346 q 0.0224,-0.0728 0.31613,-1.28468 0.29933,-1.31642 0.43961,-1.85792 0.23004,-0.83279 0.63226,-2.56935 0.043,-0.22594 0.62478,-2.54507 l 1.1485,-4.5897 q 0.47701,-1.9793 0.78947,-3.42457 -0.0522,-0.17557 -0.31922,-0.25784 -0.0971,-0.0299 -0.83096,-0.14974 -0.7021,-0.13661 -0.79919,-0.16653 -0.16992,-0.0524 -0.20351,-0.11587 -0.13999,-0.14945 -0.23878,-0.60515 0.3586,-0.12871 1.817,0.0549 1.2175,0.18911 1.46023,0.26391 0.14748,0.12518 0.43312,0.31951 0.0971,0.0299 0.42761,0.0786 0.338,0.0244 0.43509,0.0543 0.0971,0.0299 0.1829,0.26899 0.11756,0.22228 0.0802,0.34364 -0.15143,0.40518 -0.68545,0.24062 l -0.0971,-0.0299 q -0.33984,-0.10471 -0.42578,0.002 l 1.38258,7.4162 q 0.60713,-0.50396 1.92455,-2.62297 1.47253,-2.36358 2.23292,-3.19241 l -0.10077,-0.19052 q -0.60317,-0.0264 -0.96728,-0.13859 -0.23525,-0.0991 -0.44609,-0.53614 l 0.13463,-0.43693 4.78404,0.86287 q 0.12137,0.0374 0.29495,0.25036 0.20534,0.19616 0.1455,0.39035 -0.0617,0.11389 -0.36424,0.23328 -0.2951,0.0951 -0.44074,0.0502 -0.95599,-0.34774 -0.81035,-0.30286 -0.89813,-0.27675 -1.20663,0.63817 l -4.27789,17.07416 q 0.0336,0.0635 0.3174,0.17754 0.50974,0.15707 0.76179,0.2879 0.52838,0.26913 0.47786,0.51934 z m 16.80721,7.12041 q -0.15443,0.20796 -0.49132,0.38591 -1.30274,-0.3345 -2.58885,-0.94207 -0.2067,-0.0976 -0.31448,-0.3452 -0.0957,-0.21374 -0.0414,-0.32857 0.0217,-0.0459 0.68462,-0.37887 l 2.74859,-9.20782 q 0.0179,-0.21627 -0.0152,-0.68138 -1.10239,-0.52077 -1.61976,-0.79327 -0.50653,-0.29547 -0.3917,-0.24122 -0.0689,-0.0325 -0.79043,-0.28913 -0.69857,-0.24573 -0.79044,-0.28913 l -3.03155,-1.43212 q -1.11749,2.36553 -2.41166,4.45095 -2.64131,4.34246 -2.90423,4.78009 -0.16401,0.28771 -0.44919,0.23727 -1.05969,-0.13541 -2.3458,-0.74298 -0.57416,-0.27123 -0.35717,-0.73056 0.10849,-0.22966 1.23962,0.0519 1.26892,0.34662 1.39334,0.32112 2.2699,-3.67517 2.51943,-4.20339 l 6.80718,-11.13907 q -0.48356,-0.28462 -0.96712,-0.56924 -0.64433,-0.36056 -0.41649,-0.84285 0.0434,-0.0919 0.0989,-0.14992 0.0893,-0.0702 0.10018,-0.0931 0.89569,0.42313 2.81274,1.30066 1.9279,0.85456 1.859,0.82201 0.50526,0.23869 1.9675,0.59236 1.4852,0.36451 2.01343,0.61405 0.18373,0.0868 0.22262,0.3018 0.0727,0.2029 0.0185,0.31773 -0.0868,0.18373 -0.40325,0.25897 -0.29349,0.0861 -0.38536,0.0427 -0.0919,-0.0434 -0.27559,-0.1302 -0.16077,-0.0759 -0.25263,-0.11934 -0.52655,1.35248 -1.43171,4.57678 -0.88473,3.12159 -2.37971,8.42696 -0.44426,1.47562 -0.86556,2.9621 -0.56812,2.03512 -0.36142,2.13277 0.0689,0.0325 0.49314,0.20487 0.45806,0.1602 0.54992,0.2036 0.66602,0.31463 0.75338,0.66491 z m 0.36039,-12.3586 1.96672,-7.07702 -0.43636,-0.20614 q -0.0919,-0.0434 -1.39588,-0.43468 -1.27019,-0.4034 -1.36206,-0.4468 0.0689,0.0325 -0.6539,-0.28082 -0.59713,-0.28208 -0.89569,-0.42312 l -2.16521,3.27516 q -0.19529,0.41339 -0.7007,1.18593 -0.48244,0.78339 -0.49329,0.80636 l -0.27123,0.57416 z m 10.50951,19.74606 q -0.26265,0.40487 -0.75275,0.0869 -0.31964,-0.20736 -1.13801,-0.85936 -0.83219,-0.63069 -2.21727,-1.52922 -0.51142,-0.33177 -0.6237,-0.85875 0.24883,-0.38356 0.85815,-0.10939 0.78614,0.32833 0.8564,0.31336 l 0.45592,-6.91006 -1.10588,1.70472 -1.92093,3.56782 q 0.17796,0.14572 0.46705,0.72686 l -0.31794,0.4901 q -0.83165,-0.0248 -1.21522,-0.27363 -0.0639,-0.0415 -0.55517,-0.45099 -0.48377,-0.37438 -0.66173,-0.5201 -0.38356,-0.24882 -0.76712,-0.49765 -0.43366,-0.3116 -0.60009,-0.66178 l 0.19353,-0.29832 q 0.13938,-0.12152 0.47803,-0.0835 0.33865,0.038 0.55174,0.17626 0.17047,0.11059 1.30847,0.96995 0.0351,-0.007 0.0778,0.0202 0.0778,0.0202 0.14687,-0.0864 l 8.19458,-14.54541 q -0.08,-0.20331 -0.33575,-0.3692 -0.17047,-0.11059 -0.48896,-0.22636 -0.29718,-0.10196 -0.31849,-0.11578 l -0.83104,-0.53912 q 0.0138,-0.0213 0.068,-0.19812 0.0754,-0.16299 0.13075,-0.24822 0.68249,-0.072 2.28355,0.63364 1.50201,0.67162 2.99363,1.63927 0.85236,0.55294 2.19017,2.17772 0.74406,0.90656 0.85979,1.70827 0.23373,1.78657 -0.80303,3.38473 -1.31324,2.02435 -3.60318,2.56734 -2.25482,0.53551 -4.48248,-0.69769 -0.17047,-0.11058 -0.50163,-0.11348 -0.51962,2.3878 -0.49383,5.00831 -0.005,0.14802 -0.18091,1.30564 -0.0887,0.79018 0.0921,1.72493 0.0438,0.11922 0.70434,0.54775 0.0852,0.0553 0.44634,0.19872 0.39624,0.13594 0.48147,0.19124 0.2344,0.15205 0.19752,0.58228 -0.0242,0.31734 -0.12097,0.4665 z m 6.36932,-12.33852 q 0.74647,-1.15068 0.68894,-2.36879 -0.061,-1.49283 -1.38442,-2.53303 -0.11403,-0.10425 -0.35706,-0.38302 -0.24303,-0.27876 -0.32826,-0.33406 l -2.13089,-1.38235 -1.42383,2.19482 q -0.41471,0.63926 -1.67325,3.09268 -1.25854,2.45343 -1.26374,2.60144 0,0 0.7032,0.45618 1.81126,1.175 3.89904,0.80363 2.1091,-0.35755 3.27027,-2.1475 z"
       id="text6"
       style="font-size:25.4px;font-family:flutSaus;-inkscape-font-specification:flutSaus;fill-opacity:0.998124;stroke-width:1.32292"
       transform="translate(-3.8543957,77.638541)"
       aria-label="ERIC SAKMAR" />
  </g>
</svg>
